<svg xmlns="http://www.w3.org/2000/svg" xmlns:xlink="http://www.w3.org/1999/xlink" width="52" height="87" viewBox="0 0 52 87">
  <defs>
    <filter id="Rectangle_768" x="0" y="0" width="52" height="87" filterUnits="userSpaceOnUse">
      <feOffset dy="3" input="SourceAlpha"/>
      <feGaussianBlur stdDeviation="3" result="blur"/>
      <feFlood flood-opacity="0.161"/>
      <feComposite operator="in" in2="blur"/>
      <feComposite in="SourceGraphic"/>
    </filter>
  </defs>
  <g id="Group_1572" data-name="Group 1572" transform="translate(6 -409)">
    <g id="fence" transform="translate(634 373.542) rotate(90)">
      <g transform="matrix(0, -1, 1, 0, 35.46, 640)" filter="url(#Rectangle_768)">
        <rect id="Rectangle_768-2" data-name="Rectangle 768" width="69" height="34" rx="17" transform="translate(43 6) rotate(90)" fill="#fff"/>
      </g>
    </g>
    <path id="Path_1710" data-name="Path 1710" d="M-11.79-.87h-3.835V-3.534h3.636v-.859h-3.636V-6.88h3.835v-.87h-4.8V0h4.8Zm3.1-1.257L-7.348,0h1.037L-8.169-2.831l1.885-2.755H-7.326L-8.653-3.491h-.021l-1.343-2.095h-1.042L-9.19-2.793-11.091,0h1.037l1.348-2.127Zm5.9-3.556a2.005,2.005,0,0,0-1.8,1.042h-.021v-.945H-5.5v7.45h.935V-.908h.021A1.962,1.962,0,0,0-2.766.1C-1.359.1-.4-1.042-.4-2.793S-1.364-5.683-2.788-5.683ZM-2.97-.725c-.956,0-1.6-.822-1.6-2.068s.645-2.068,1.6-2.068c.994,0,1.617.806,1.617,2.068S-1.977-.725-2.97-.725ZM2.175.1A2.037,2.037,0,0,0,3.969-.961h.021V0h.886V-3.862c0-1.112-.827-1.821-2.138-1.821A1.972,1.972,0,0,0,.526-3.975h.9a1.172,1.172,0,0,1,1.289-.886c.773,0,1.225.408,1.225,1.09V-3.3l-1.6.091C1.053-3.137.317-2.535.317-1.579A1.678,1.678,0,0,0,2.175.1ZM2.385-.7c-.671,0-1.117-.349-1.117-.881s.43-.859,1.182-.908l1.493-.091v.457A1.47,1.47,0,0,1,2.385-.7ZM6.064,0H7V-3.287A1.425,1.425,0,0,1,8.454-4.855c.859,0,1.284.494,1.284,1.4V0h.935V-3.625A1.839,1.839,0,0,0,8.739-5.683a1.869,1.869,0,0,0-1.772.988H6.945v-.892H6.064Zm7.912.1a2,2,0,0,0,1.8-1.042H15.8V0h.892V-7.75h-.935v3.072h-.021a1.962,1.962,0,0,0-1.778-1c-1.407,0-2.369,1.139-2.369,2.89S12.552.1,13.976.1Zm.177-4.958c.961,0,1.606.822,1.606,2.068S15.114-.725,14.153-.725c-.988,0-1.611-.8-1.611-2.068S13.165-4.861,14.153-4.861Z" transform="translate(19 450) rotate(-90)" fill="#4b4b4b"/>
    <g id="next" transform="translate(-25.88 443.384)">
      <path id="Chevron_Right_1_" d="M58.95,5.68,54.892.181a.378.378,0,0,0-.645,0,.779.779,0,0,0,0,.873l3.736,5.063-3.736,5.063a.78.78,0,0,0,0,.873.378.378,0,0,0,.645,0l4.058-5.5A.789.789,0,0,0,58.95,5.68Z" fill="#4b4b4b"/>
    </g>
  </g>
</svg>
